<?xml version="1.0" encoding="utf-8"?>
<!-- Generator: Adobe Illustrator 22.0.1, SVG Export Plug-In . SVG Version: 6.00 Build 0)  -->
<svg version="1.1" xmlns="http://www.w3.org/2000/svg" xmlns:xlink="http://www.w3.org/1999/xlink" x="0px" y="0px"
	 viewBox="0 0 500 500" style="enable-background:new 0 0 500 500;" xml:space="preserve">
<style type="text/css">
	.st0{fill:#FFFFFF;}
	.st1{fill:#7ACDFF;}
	.st2{fill:url(#SVGID_1_);}
	.st3{fill:url(#SVGID_2_);}
	.st4{fill:url(#SVGID_3_);}
	.st5{fill:url(#SVGID_4_);}
	.st6{opacity:0.33;fill:#FFFFFF;}
	.st7{fill:url(#SVGID_5_);}
	.st8{fill:url(#SVGID_6_);}
	.st9{fill:url(#SVGID_7_);}
	.st10{opacity:9.000000e-02;fill:none;stroke:#000000;stroke-width:1.8919;stroke-miterlimit:10;}
	.st11{fill:url(#SVGID_8_);}
	.st12{fill:url(#SVGID_9_);}
	.st13{fill:none;stroke:#000000;stroke-width:1.8919;stroke-miterlimit:10;}
	.st14{fill:url(#SVGID_10_);}
	.st15{clip-path:url(#SVGID_12_);fill:url(#SVGID_13_);}
	.st16{clip-path:url(#SVGID_12_);fill:url(#SVGID_14_);}
	.st17{fill:url(#SVGID_15_);}
	.st18{fill:url(#SVGID_16_);}
	.st19{fill:#D4D4D4;}
	.st20{fill:url(#SVGID_17_);}
	.st21{fill:#76C9F0;}
	.st22{fill:url(#SVGID_18_);}
	.st23{clip-path:url(#SVGID_20_);fill:url(#SVGID_21_);}
	.st24{clip-path:url(#SVGID_20_);fill:url(#SVGID_22_);}
	.st25{fill:#A3A3A3;}
	.st26{fill:#B9B9B9;}
	.st27{opacity:0.48;}
	.st28{clip-path:url(#SVGID_24_);fill:url(#SVGID_25_);}
	.st29{fill:url(#SVGID_26_);}
</style>
<g id="BACKGROUND">
	<rect class="st0" width="500" height="500"/>
</g>
<g id="OBJECTS">
	<circle class="st1" cx="250" cy="250" r="175"/>
	<g>
		<linearGradient id="SVGID_1_" gradientUnits="userSpaceOnUse" x1="69.8485" y1="426.8991" x2="173.0832" y2="329.6588">
			<stop  offset="0" style="stop-color:#FF8533"/>
			<stop  offset="0.9964" style="stop-color:#FFD052"/>
		</linearGradient>
		<path class="st2" d="M174.2,325.6c0,0-60.8-22.8-73.8,36.4l12.8-2.6c0,0-15.1,17.3-20.4,50.1c32.7-6.4,49.5-21.9,49.5-21.9
			l-2.2,12.9C198.9,385.6,174.2,325.6,174.2,325.6z"/>
		<linearGradient id="SVGID_2_" gradientUnits="userSpaceOnUse" x1="117.0295" y1="382.8422" x2="180.6624" y2="320.2356">
			<stop  offset="3.558720e-03" style="stop-color:#FFD052"/>
			<stop  offset="1" style="stop-color:#FFE9AE"/>
		</linearGradient>
		<path class="st3" d="M174.2,325.6c0,0-37.9-14.2-46.1,22.7l8-1.6c0,0-9.4,10.8-12.7,31.3c20.4-4,30.9-13.7,30.9-13.7l-1.3,8.1
			C189.6,363,174.2,325.6,174.2,325.6z"/>
		<linearGradient id="SVGID_3_" gradientUnits="userSpaceOnUse" x1="235.8603" y1="351.3223" x2="176.2907" y2="253.9489">
			<stop  offset="0" style="stop-color:#767B7F"/>
			<stop  offset="1" style="stop-color:#A3A3A3"/>
		</linearGradient>
		<polygon class="st4" points="217.2,322.5 175.7,281.5 187.1,270 228.6,311 		"/>
		<linearGradient id="SVGID_4_" gradientUnits="userSpaceOnUse" x1="146.9981" y1="246.4599" x2="242.4566" y2="355.5555">
			<stop  offset="3.558720e-03" style="stop-color:#F02E54"/>
			<stop  offset="1" style="stop-color:#8F1931"/>
		</linearGradient>
		<path class="st5" d="M207.2,215.5c0,0-38.5-2.8-54.4,13.1c-17.1,17.2-31.2,38.2-42.6,68.2c-6.1,16,10-0.5,20.7-10.3
			c18.7-17.1,27.9-16.7,45.7-12.6C176.6,273.8,186.1,254.2,207.2,215.5z"/>
		<path class="st6" d="M207.2,215.5c0,0-38.5-2.8-54.4,13.1c-17.1,17.2-31.2,38.2-42.6,68.2c-1.1,3-1.5,4.9-1.3,5.8
			c0,0,16.4-38,34.4-56.6S173.3,220.4,207.2,215.5"/>
		<linearGradient id="SVGID_5_" gradientUnits="userSpaceOnUse" x1="248.0439" y1="381.8685" x2="217.3649" y2="227.271">
			<stop  offset="3.558720e-03" style="stop-color:#F02E54"/>
			<stop  offset="1" style="stop-color:#8F1931"/>
		</linearGradient>
		<path class="st7" d="M283.3,290.8c0,0,3.2,38.4-12.6,54.3c-17.1,17.2-38,31.4-68,43.1c-16,6.2,0.5-10,10.1-20.7
			c16.9-18.8,16.5-28,12.3-45.7C225.2,321.9,244.7,312.1,283.3,290.8z"/>
		<linearGradient id="SVGID_6_" gradientUnits="userSpaceOnUse" x1="276.0368" y1="151.4578" x2="346.6577" y2="318.2509">
			<stop  offset="3.558720e-03" style="stop-color:#EEF4FA"/>
			<stop  offset="1" style="stop-color:#CDDEED"/>
		</linearGradient>
		<path class="st8" d="M404.7,145.8c6.4-41.5-1.8-51.3-1.8-51.3s-9.9-8.1-51.4-1.3c-43.9,7.1-71.8,34.1-90.8,52.9
			c-24.6,24.3-65,80.2-84.2,127.7l24.4,23.9l24.2,24.2c47.5-19.5,103.2-60.4,127.3-85.1C371.1,217.7,397.9,189.7,404.7,145.8z"/>
		<linearGradient id="SVGID_7_" gradientUnits="userSpaceOnUse" x1="285.6804" y1="169.9507" x2="345.5925" y2="311.4518">
			<stop  offset="3.558720e-03" style="stop-color:#EEF4FA"/>
			<stop  offset="1" style="stop-color:#CDDEED"/>
		</linearGradient>
		<path class="st9" d="M182.8,279.8l18.2,17.9l24.2,24.2c47.5-19.5,103.2-60.4,127.3-85.1c18.6-19.1,45.5-47.1,52.2-91
			c6.4-41.5-1.8-51.3-1.8-51.3"/>
		<line class="st10" x1="180" y1="277.2" x2="221.6" y2="318.3"/>
		<linearGradient id="SVGID_8_" gradientUnits="userSpaceOnUse" x1="173.0094" y1="238.2029" x2="236.7503" y2="316.8469">
			<stop  offset="0" style="stop-color:#C7C7C7"/>
			<stop  offset="1" style="stop-color:#A3A3A3"/>
		</linearGradient>
		<path class="st11" d="M176.6,273.8l24.4,23.9l24.2,24.2c9.6-3.9,19.5-8.8,29.5-14.1l-64.2-63.5
			C185.2,254.2,180.4,264.2,176.6,273.8z"/>
		<linearGradient id="SVGID_9_" gradientUnits="userSpaceOnUse" x1="219.3767" y1="276.7293" x2="232.4199" y2="316.9457">
			<stop  offset="0" style="stop-color:#1D262D"/>
			<stop  offset="1" style="stop-color:#1D262D;stop-opacity:0"/>
		</linearGradient>
		<polygon class="st12" points="241.7,259.3 225.2,321.9 220.4,318.8 217.2,322.5 201.1,306.6 		"/>
		<line class="st13" x1="315.4" y1="104.5" x2="393.6" y2="181.9"/>
		<linearGradient id="SVGID_10_" gradientUnits="userSpaceOnUse" x1="360.3875" y1="107.8113" x2="492.1876" y2="213.5191">
			<stop  offset="3.558720e-03" style="stop-color:#F02E54"/>
			<stop  offset="1" style="stop-color:#8F1931"/>
		</linearGradient>
		<path class="st14" d="M402.9,94.5c0,0-9.9-8.1-51.4-1.3c-13.5,2.2-25.4,6.2-36.1,11.4l78.2,77.4c5-10.7,9-22.6,11.1-36.1
			C411.1,104.3,402.9,94.5,402.9,94.5z"/>
		<g>
			<defs>
				<path id="SVGID_11_" d="M404.7,145.8c6.4-41.5-1.8-51.3-1.8-51.3s-9.9-8.1-51.4-1.3c-43.9,7.1-71.8,34.1-90.8,52.9
					c-24.6,24.3-65,80.2-84.2,127.7l24.4,23.9l24.2,24.2c47.5-19.5,103.2-60.4,127.3-85.1C371.1,217.7,397.9,189.7,404.7,145.8z"/>
			</defs>
			<clipPath id="SVGID_12_">
				<use xlink:href="#SVGID_11_"  style="overflow:visible;"/>
			</clipPath>
			<linearGradient id="SVGID_13_" gradientUnits="userSpaceOnUse" x1="528.6813" y1="336.9118" x2="284.6816" y2="83.9123">
				<stop  offset="0" style="stop-color:#8F1931"/>
				<stop  offset="0.9964" style="stop-color:#F02E54"/>
			</linearGradient>
			<polygon class="st15" points="393.9,198.6 299.8,106.4 303.8,102.3 397.9,194.5 			"/>
			<linearGradient id="SVGID_14_" gradientUnits="userSpaceOnUse" x1="521.2647" y1="344.0656" x2="277.265" y2="91.0662">
				<stop  offset="0" style="stop-color:#8F1931"/>
				<stop  offset="0.9964" style="stop-color:#F02E54"/>
			</linearGradient>
			<polygon class="st16" points="388.2,206.1 294,113.9 296.7,111.2 390.8,203.4 			"/>
		</g>
		<line class="st10" x1="190.5" y1="244.2" x2="254.6" y2="307.7"/>
		<linearGradient id="SVGID_15_" gradientUnits="userSpaceOnUse" x1="171.3046" y1="278.1467" x2="246.0342" y2="385.0383">
			<stop  offset="3.558720e-03" style="stop-color:#F02E54"/>
			<stop  offset="1" style="stop-color:#8F1931"/>
		</linearGradient>
		<path class="st17" d="M241.4,257.1c0,0-3.6-5.5-38.2,29.3c-34.6,34.8-64.1,68.2-61.4,70.9c2.8,2.7,35.9-27,70.6-61.8
			C247,260.6,241.4,257.1,241.4,257.1z"/>
		<path class="st6" d="M241.4,257.1c0,0-3.6-5.5-38.2,29.3c-34.6,34.8-64.1,68.2-61.4,70.9c0,0,9.7-13.9,35.7-41.6
			C203.4,288,233.2,257.8,241.4,257.1z"/>
		<g>
			<linearGradient id="SVGID_16_" gradientUnits="userSpaceOnUse" x1="300.983" y1="223.3097" x2="327.9652" y2="279.8038">
				<stop  offset="0" style="stop-color:#1D262D"/>
				<stop  offset="0.6767" style="stop-color:#1D262D;stop-opacity:0.3233"/>
				<stop  offset="1" style="stop-color:#1D262D;stop-opacity:0"/>
			</linearGradient>
			<circle class="st18" cx="292.7" cy="206" r="43.1"/>
			
				<ellipse transform="matrix(1 -3.046007e-03 3.046007e-03 1 -0.6222 0.8916)" class="st19" cx="292.4" cy="204.7" rx="42.8" ry="42.8"/>
			<linearGradient id="SVGID_17_" gradientUnits="userSpaceOnUse" x1="273.293" y1="159.3252" x2="326.2936" y2="283.3147">
				<stop  offset="0" style="stop-color:#C7C7C7"/>
				<stop  offset="1" style="stop-color:#A3A3A3"/>
			</linearGradient>
			<circle class="st20" cx="292.9" cy="205.2" r="42.3"/>
			
				<ellipse transform="matrix(1 -5.851120e-03 5.851120e-03 1 -1.1928 1.7129)" class="st21" cx="292.1" cy="204.7" rx="33.1" ry="33.1"/>
			<linearGradient id="SVGID_18_" gradientUnits="userSpaceOnUse" x1="266.9807" y1="166.5192" x2="329.6179" y2="262.2418">
				<stop  offset="0" style="stop-color:#ADE5FF"/>
				<stop  offset="1" style="stop-color:#76C9F0"/>
			</linearGradient>
			<circle class="st22" cx="292.4" cy="205.4" r="31.7"/>
			<g>
				<defs>
					
						<ellipse id="SVGID_19_" transform="matrix(1 -4.901805e-03 4.901805e-03 1 -1.0031 1.4357)" cx="292.4" cy="205.4" rx="31.7" ry="31.7"/>
				</defs>
				<clipPath id="SVGID_20_">
					<use xlink:href="#SVGID_19_"  style="overflow:visible;"/>
				</clipPath>
				<linearGradient id="SVGID_21_" gradientUnits="userSpaceOnUse" x1="322.9919" y1="178.9749" x2="256.0325" y2="223.3128">
					<stop  offset="0" style="stop-color:#F9FBFC"/>
					<stop  offset="1" style="stop-color:#F9FBFC;stop-opacity:0"/>
				</linearGradient>
				<polygon class="st23" points="321.6,180.3 251.3,211.3 256.3,222.7 326.7,191.7 				"/>
				<linearGradient id="SVGID_22_" gradientUnits="userSpaceOnUse" x1="331.5724" y1="191.9331" x2="264.613" y2="236.271">
					<stop  offset="0" style="stop-color:#F9FBFC"/>
					<stop  offset="1" style="stop-color:#F9FBFC;stop-opacity:0"/>
				</linearGradient>
				<polygon class="st24" points="328.6,197.9 258.3,229 260.8,234.7 331.2,203.7 				"/>
			</g>
			<g>
				<g>
					<path class="st25" d="M265.4,180.9c0.2-1-0.4-1.9-1.4-2.1c-1-0.2-1.9,0.4-2.1,1.4c-0.2,1,0.4,1.9,1.4,2.1
						C264.2,182.5,265.2,181.9,265.4,180.9z"/>
					<path class="st25" d="M259.1,190.8c0.2-1-0.4-1.9-1.4-2.1c-1-0.2-1.9,0.4-2.1,1.4c-0.2,1,0.4,1.9,1.4,2.1
						C257.9,192.4,258.9,191.7,259.1,190.8z"/>
					<path class="st25" d="M272.5,174c0.2-1-0.4-1.9-1.4-2.1c-1-0.2-1.9,0.4-2.1,1.4c-0.2,1,0.4,1.9,1.4,2.1
						C271.3,175.6,272.3,175,272.5,174z"/>
					<path class="st25" d="M257.5,212.2c-0.6-0.8-1.8-0.9-2.5-0.2c-0.8,0.6-0.9,1.8-0.2,2.5c0.6,0.8,1.8,0.9,2.5,0.2
						C258,214.1,258.1,213,257.5,212.2z"/>
					<path class="st25" d="M261.3,223.3c-0.6-0.8-1.8-0.9-2.5-0.2c-0.8,0.6-0.9,1.8-0.2,2.5c0.6,0.8,1.8,0.9,2.5,0.2
						C261.9,225.2,262,224,261.3,223.3z"/>
					<path class="st25" d="M256.7,200.6c-0.6-0.8-1.8-0.9-2.5-0.2c-0.8,0.6-0.9,1.8-0.2,2.5s1.8,0.9,2.5,0.2
						C257.3,202.5,257.4,201.4,256.7,200.6z"/>
					<path class="st25" d="M276.4,237.9c-1,0-1.8,0.9-1.7,1.9c0,1,0.9,1.8,1.9,1.7c1,0,1.8-0.9,1.7-1.9
						C278.3,238.7,277.4,237.9,276.4,237.9z"/>
					<path class="st25" d="M287.5,241.7c-1,0-1.8,0.9-1.7,1.9c0,1,0.9,1.8,1.9,1.7c1,0,1.8-0.9,1.7-1.9
						C289.4,242.4,288.5,241.7,287.5,241.7z"/>
					<path class="st25" d="M266.9,231.4c-1,0-1.8,0.9-1.7,1.9c0,1,0.9,1.8,1.9,1.7c1,0,1.8-0.9,1.7-1.9
						C268.7,232.1,267.9,231.4,266.9,231.4z"/>
					<path class="st25" d="M308.6,238.6c-0.6,0.8-0.4,1.9,0.4,2.5c0.8,0.6,1.9,0.4,2.5-0.4c0.6-0.8,0.4-1.9-0.4-2.5
						C310.4,237.6,309.2,237.8,308.6,238.6z"/>
					<path class="st25" d="M317.9,232.3c-0.6,0.8-0.4,1.9,0.4,2.5c0.8,0.6,1.9,0.4,2.5-0.4c0.6-0.8,0.4-1.9-0.4-2.5
						C319.6,231.3,318.5,231.5,317.9,232.3z"/>
					<path class="st25" d="M297.7,241.6c-0.6,0.8-0.4,1.9,0.4,2.5c0.8,0.6,1.9,0.4,2.5-0.4c0.6-0.8,0.4-1.9-0.4-2.5
						C299.4,240.7,298.3,240.8,297.7,241.6z"/>
					<path class="st25" d="M327.5,214.2c0.2,1,1.2,1.6,2.2,1.3c1-0.2,1.6-1.2,1.3-2.2c-0.2-1-1.2-1.6-2.2-1.3
						C327.9,212.2,327.3,213.2,327.5,214.2z"/>
					<path class="st25" d="M328.7,203.5c0.2,1,1.2,1.6,2.2,1.3c1-0.2,1.6-1.2,1.3-2.2c-0.2-1-1.2-1.6-2.2-1.3
						C329.1,201.5,328.5,202.5,328.7,203.5z"/>
					<path class="st25" d="M323.8,224.9c0.2,1,1.2,1.6,2.2,1.3c1-0.2,1.6-1.2,1.3-2.2c-0.2-1-1.2-1.6-2.2-1.3
						C324.2,223,323.6,224,323.8,224.9z"/>
					<path class="st25" d="M322.5,183.7c0.9,0.4,2,0,2.4-0.9c0.4-0.9,0-2-0.9-2.4c-0.9-0.4-2,0-2.4,0.9
						C321.2,182.2,321.6,183.3,322.5,183.7z"/>
					<path class="st25" d="M314.3,175.5c0.9,0.4,2,0,2.4-0.9c0.4-0.9,0-2-0.9-2.4c-0.9-0.4-2,0-2.4,0.9
						C313,174,313.4,175.1,314.3,175.5z"/>
					<path class="st25" d="M327.3,193.7c0.9,0.4,2,0,2.4-0.9c0.4-0.9,0-2-0.9-2.4c-0.9-0.4-2,0-2.4,0.9
						C326,192.3,326.4,193.3,327.3,193.7z"/>
					
						<ellipse transform="matrix(0.2632 -0.9647 0.9647 0.2632 54.0559 405.1887)" class="st25" cx="292.3" cy="167.2" rx="1.8" ry="1.8"/>
					<path class="st25" d="M281.9,170.8c0.9-0.5,1.2-1.6,0.8-2.4c-0.5-0.9-1.6-1.2-2.4-0.8c-0.9,0.5-1.2,1.6-0.8,2.4
						C279.9,170.9,281,171.2,281.9,170.8z"/>
					
						<ellipse transform="matrix(0.4008 -0.9162 0.9162 0.4008 27.4425 379.6776)" class="st25" cx="304" cy="168.9" rx="1.8" ry="1.8"/>
				</g>
				<g>
					<path class="st19" d="M265,180.5c0.2-1-0.4-1.9-1.4-2.1c-1-0.2-1.9,0.4-2.1,1.4c-0.2,1,0.4,1.9,1.4,2.1
						C263.8,182.1,264.8,181.5,265,180.5z"/>
					<path class="st19" d="M258.7,190.4c0.2-1-0.4-1.9-1.4-2.1c-1-0.2-1.9,0.4-2.1,1.4c-0.2,1,0.4,1.9,1.4,2.1
						C257.5,192,258.5,191.4,258.7,190.4z"/>
					<path class="st19" d="M272.1,173.7c0.2-1-0.4-1.9-1.4-2.1c-1-0.2-1.9,0.4-2.1,1.4c-0.2,1,0.4,1.9,1.4,2.1
						C270.9,175.3,271.9,174.6,272.1,173.7z"/>
					<path class="st19" d="M257.1,211.8c-0.6-0.8-1.8-0.9-2.5-0.2s-0.9,1.8-0.2,2.5c0.6,0.8,1.8,0.9,2.5,0.2
						C257.6,213.7,257.7,212.6,257.1,211.8z"/>
					<path class="st19" d="M261,222.9c-0.6-0.8-1.8-0.9-2.5-0.2c-0.8,0.6-0.9,1.8-0.2,2.5s1.8,0.9,2.5,0.2
						C261.5,224.8,261.6,223.7,261,222.9z"/>
					<path class="st19" d="M256.4,200.2c-0.6-0.8-1.8-0.9-2.5-0.2s-0.9,1.8-0.2,2.5c0.6,0.8,1.8,0.9,2.5,0.2
						C256.9,202.2,257,201,256.4,200.2z"/>
					<path class="st19" d="M276.1,237.6c-1,0-1.8,0.9-1.7,1.9c0,1,0.9,1.8,1.9,1.7c1,0,1.8-0.9,1.7-1.9
						C277.9,238.3,277.1,237.5,276.1,237.6z"/>
					<path class="st19" d="M287.2,241.3c-1,0-1.8,0.9-1.7,1.9c0,1,0.9,1.8,1.9,1.7c1,0,1.8-0.9,1.7-1.9
						C289,242.1,288.2,241.3,287.2,241.3z"/>
					<path class="st19" d="M266.5,231c-1,0-1.8,0.9-1.7,1.9c0,1,0.9,1.8,1.9,1.7c1,0,1.8-0.9,1.7-1.9
						C268.3,231.8,267.5,231,266.5,231z"/>
					<path class="st19" d="M308.3,238.2c-0.6,0.8-0.4,1.9,0.4,2.5c0.8,0.6,1.9,0.4,2.5-0.4c0.6-0.8,0.4-1.9-0.4-2.5
						C310,237.2,308.8,237.4,308.3,238.2z"/>
					<path class="st19" d="M317.5,231.9c-0.6,0.8-0.4,1.9,0.4,2.5c0.8,0.6,1.9,0.4,2.5-0.4c0.6-0.8,0.4-1.9-0.4-2.5
						C319.2,230.9,318.1,231.1,317.5,231.9z"/>
					<path class="st19" d="M297.3,241.3c-0.6,0.8-0.4,1.9,0.4,2.5c0.8,0.6,1.9,0.4,2.5-0.4c0.6-0.8,0.4-1.9-0.4-2.5
						C299,240.3,297.9,240.5,297.3,241.3z"/>
					<path class="st19" d="M327.1,213.8c0.2,1,1.2,1.6,2.2,1.3c1-0.2,1.6-1.2,1.3-2.2c-0.2-1-1.2-1.6-2.2-1.3
						C327.5,211.9,326.9,212.8,327.1,213.8z"/>
					<path class="st19" d="M328.4,203.1c0.2,1,1.2,1.6,2.2,1.3c1-0.2,1.6-1.2,1.3-2.2c-0.2-1-1.2-1.6-2.2-1.3
						S328.1,202.1,328.4,203.1z"/>
					<path class="st19" d="M323.5,224.5c0.2,1,1.2,1.6,2.2,1.3c1-0.2,1.6-1.2,1.3-2.2c-0.2-1-1.2-1.6-2.2-1.3
						C323.8,222.6,323.2,223.6,323.5,224.5z"/>
					<path class="st19" d="M322.1,183.3c0.9,0.4,2,0,2.4-0.9c0.4-0.9,0-2-0.9-2.4c-0.9-0.4-2,0-2.4,0.9
						C320.8,181.8,321.2,182.9,322.1,183.3z"/>
					
						<ellipse transform="matrix(0.4425 -0.8968 0.8968 0.4425 19.8573 378.9106)" class="st19" cx="314.7" cy="173.5" rx="1.8" ry="1.8"/>
					<path class="st19" d="M326.9,193.4c0.9,0.4,2,0,2.4-0.9c0.4-0.9,0-2-0.9-2.4c-0.9-0.4-2,0-2.4,0.9
						C325.6,191.9,326,193,326.9,193.4z"/>
					
						<ellipse transform="matrix(0.2632 -0.9647 0.9647 0.2632 54.1337 404.5332)" class="st19" cx="291.9" cy="166.8" rx="1.8" ry="1.8"/>
					<path class="st19" d="M281.5,170.4c0.9-0.5,1.2-1.6,0.8-2.4c-0.5-0.9-1.6-1.2-2.4-0.8c-0.9,0.5-1.2,1.6-0.8,2.4
						C279.6,170.5,280.7,170.9,281.5,170.4z"/>
					
						<ellipse transform="matrix(0.4008 -0.9162 0.9162 0.4008 27.5767 379.1199)" class="st19" cx="303.6" cy="168.5" rx="1.8" ry="1.8"/>
				</g>
				<g>
					
						<rect x="261.5" y="179.9" transform="matrix(0.7071 -0.7071 0.7071 0.7071 -50.2714 238.8841)" class="st26" width="3.4" height="0.4"/>
					
						<rect x="255.3" y="189.8" transform="matrix(0.7071 -0.7071 0.7071 0.7071 -59.1068 237.3404)" class="st26" width="3.4" height="0.4"/>
					
						<rect x="268.7" y="173.1" transform="matrix(0.7071 -0.7071 0.7071 0.7071 -43.3546 241.9173)" class="st26" width="3.4" height="0.4"/>
					
						<rect x="254" y="212.8" transform="matrix(0.7071 -0.7071 0.7071 0.7071 -75.7103 243.1905)" class="st26" width="3.4" height="0.4"/>
					
						<rect x="257.9" y="223.9" transform="matrix(0.7071 -0.7071 0.7071 0.7071 -82.4022 249.1561)" class="st26" width="3.4" height="0.4"/>
					
						<rect x="253.3" y="201.2" transform="matrix(0.7071 -0.7071 0.7071 0.7071 -67.7365 239.2796)" class="st26" width="3.4" height="0.4"/>
					
						<rect x="274.4" y="239.2" transform="matrix(0.7071 -0.7071 0.7071 0.7071 -88.3766 265.3566)" class="st26" width="3.4" height="0.4"/>
					
						<rect x="285.5" y="242.9" transform="matrix(0.7071 -0.7071 0.7071 0.7071 -87.7816 274.3062)" class="st26" width="3.4" height="0.4"/>
					
						<rect x="264.9" y="232.6" transform="matrix(0.7071 -0.7071 0.7071 0.7071 -86.557 256.6638)" class="st26" width="3.4" height="0.4"/>
					
						<rect x="308" y="239.1" transform="matrix(0.7071 -0.7071 0.7071 0.7071 -78.4708 289.0695)" class="st26" width="3.4" height="0.4"/>
					
						<rect x="317.3" y="232.8" transform="matrix(0.7071 -0.7071 0.7071 0.7071 -71.309 293.7733)" class="st26" width="3.4" height="0.4"/>
					
						<rect x="297.1" y="242.2" transform="matrix(0.7071 -0.7071 0.7071 0.7071 -83.852 282.2301)" class="st26" width="3.4" height="0.4"/>
					
						<rect x="327.2" y="213.2" transform="matrix(0.7071 -0.7071 0.7071 0.7071 -54.5538 295.0587)" class="st26" width="3.4" height="0.4"/>
					
						<rect x="328.4" y="202.5" transform="matrix(0.7071 -0.7071 0.7071 0.7071 -46.6087 292.7742)" class="st26" width="3.4" height="0.4"/>
					
						<rect x="323.5" y="223.9" transform="matrix(0.7071 -0.7071 0.7071 0.7071 -63.2191 295.6078)" class="st26" width="3.4" height="0.4"/>
					
						<rect x="321.2" y="181.5" transform="matrix(0.7071 -0.7071 0.7071 0.7071 -33.876 281.5011)" class="st26" width="3.4" height="0.4"/>
					
						<rect x="313" y="173.3" transform="matrix(0.7071 -0.7071 0.7071 0.7071 -30.511 273.3109)" class="st26" width="3.4" height="0.4"/>
					
						<rect x="326" y="191.5" transform="matrix(0.7071 -0.7071 0.7071 0.7071 -39.5935 287.8435)" class="st26" width="3.4" height="0.4"/>
					
						<rect x="290.2" y="166.6" transform="matrix(0.7071 -0.7071 0.7071 0.7071 -32.465 255.2743)" class="st26" width="3.4" height="0.4"/>
					
						<rect x="279" y="168.6" transform="matrix(0.7071 -0.7071 0.7071 0.7071 -37.1342 247.9244)" class="st26" width="3.4" height="0.4"/>
					
						<rect x="301.9" y="168.3" transform="matrix(0.7071 -0.7071 0.7071 0.7071 -30.2086 264.0279)" class="st26" width="3.4" height="0.4"/>
				</g>
			</g>
		</g>
		<path class="st6" d="M402.9,94.5c0,0-9.9-8.1-51.4-1.3c-43.9,7.1-71.8,34.1-90.8,52.9c-24.6,24.3-65,80.2-84.2,127.7l0,0
			C176.6,273.8,264.9,88.4,402.9,94.5z"/>
		<polygon class="st6" points="181.6,278.7 177.2,283 175.7,281.5 180,277.2 		"/>
		<g class="st27">
			<defs>
				<path id="SVGID_23_" class="st27" d="M404.7,145.8c6.4-41.5-1.8-51.3-1.8-51.3s-9.9-8.1-51.4-1.3c-43.9,7.1-71.8,34.1-90.8,52.9
					c-19.6,19.4-49.3,58.9-70.3,98.2c-5.3,10-10,19.9-13.9,29.5l24.4,23.9l24.2,24.2c47.5-19.5,103.2-60.4,127.3-85.1
					C371.1,217.7,397.9,189.7,404.7,145.8z"/>
			</defs>
			<clipPath id="SVGID_24_">
				<use xlink:href="#SVGID_23_"  style="overflow:visible;"/>
			</clipPath>
			<linearGradient id="SVGID_25_" gradientUnits="userSpaceOnUse" x1="452.4097" y1="295.3249" x2="307.9954" y2="205.1447">
				<stop  offset="0" style="stop-color:#1D262D"/>
				<stop  offset="1" style="stop-color:#1D262D;stop-opacity:0"/>
			</linearGradient>
			<path class="st28" d="M225.2,321.9c0,0,176.3-89.3,177.8-227.4l49.7,21.8L288.1,369.8C288.1,369.8,254.9,357.4,225.2,321.9z"/>
		</g>
		<linearGradient id="SVGID_26_" gradientUnits="userSpaceOnUse" x1="245.784" y1="289.8139" x2="260.7313" y2="323.2996">
			<stop  offset="0" style="stop-color:#1D262D"/>
			<stop  offset="1" style="stop-color:#1D262D;stop-opacity:0"/>
		</linearGradient>
		<path class="st29" d="M225.2,321.9l3.5,12.7c0,0,33.9-16.7,54.7-43.7l0,0C283.3,290.8,245.8,313.3,225.2,321.9z"/>
		<path class="st6" d="M209.8,372.7c10.4-10.2,14.3-20.1,15-22c-0.2,0.4-0.5,1.2-1.3,2.5c-2.3,4.3-5.8,8.9-10.7,14.3
			c-6.3,6.9-15.3,16.1-16.7,20.1c-0.2,0.8-0.1,1.4,0.3,1.7c0,0,0,0,0,0C196.5,389.3,198.2,384,209.8,372.7z"/>
	</g>
</g>
<g id="DESIGNED_BY_FREEPIK">
</g>
</svg>
